<?xml version="1.0" encoding="UTF-8"?>
<svg width="1454px" height="324px" viewBox="0 0 1454 324" version="1.1" xmlns="http://www.w3.org/2000/svg" xmlns:xlink="http://www.w3.org/1999/xlink">
    <title>Group</title>
    <g id="Page-1" stroke="none" stroke-width="1" fill="none" fill-rule="evenodd">
        <g id="Group" transform="translate(0.290000, 0.020000)">
            <polyline id="Fill-363" fill="#478EBF" points="12 215.46 14 215.46 14 71.89 81.89 4 530.16 4 633.23 107.07 1424.79 107.07 1449 131.27 1449 255.43 1407.66 296.77 335.1 296.77 287.17 248.84 63.89 248.84 13.13 213.81 12 215.46 14 215.46 12 215.46 10.86 217.1 62.65 252.84 285.51 252.84 333.45 300.77 1409.319 300.77 1453 257.09 1453 129.61 1426.45 103.07 634.88 103.07 531.819 -9.09494702e-13 80.23 -9.09494702e-13 10 70.23 10 216.51 10.86 217.1 12 215.46"></polyline>
            <polygon id="Path" fill="#0E1623" points="1396.489 323.77 1331.12 323.77 1331.12 300.77 1409.319 300.77 1439 271.09 1439 281.26"></polygon>
            <polygon id="Path" fill="#0E1623" points="1127.59 323.77 1330.12 323.77 1330.12 300.77 1127.59 300.77"></polygon>
            <polygon id="Path" fill="#0E1623" points="924.05 323.77 1126.59 323.77 1126.59 300.77 924.05 300.77"></polygon>
            <polygon id="Path" fill="#0E1623" points="720.52 323.77 923.05 323.77 923.05 300.77 720.52 300.77"></polygon>
            <polygon id="Path" fill="#0E1623" points="516.98 323.77 719.52 323.77 719.52 300.77 516.98 300.77"></polygon>
            <polygon id="Path" fill="#0E1623" points="515.98 323.77 322.28 323.77 313.45 314.95 313.45 280.78 333.45 300.77 515.98 300.77"></polygon>
            <polygon id="Path" fill="#0E1623" points="312.45 313.95 274.34 275.84 109.92 275.84 109.92 252.84 285.51 252.84 312.45 279.78"></polygon>
            <polygon id="Path" fill="#0E1623" points="108.92 275.84 51.27 275.84 0 240.46 0 181.98 10 181.98 10 216.51 10.86 217.1 12 215.46 14 215.46 12 215.46 10.86 217.1 62.65 252.84 108.92 252.84"></polygon>
            <polygon id="Path" fill="#0E1623" points="10 180.98 0 180.98 0 96.06 10 86.06"></polygon>
            <polygon id="Fill-365" fill="#1C4B77" points="108.92 275.84 109.92 275.84 109.92 252.84 108.92 252.84"></polygon>
            <polyline id="Fill-366" fill="#1C4B77" points="313.45 314.95 312.45 313.95 312.45 279.78 313.45 280.78 313.45 314.95"></polyline>
            <polygon id="Fill-367" fill="#1C4B77" points="515.98 323.77 516.98 323.77 516.98 300.77 515.98 300.77"></polygon>
            <polygon id="Fill-368" fill="#1C4B77" points="719.52 323.77 720.52 323.77 720.52 300.77 719.52 300.77"></polygon>
            <polygon id="Fill-369" fill="#1C4B77" points="923.05 323.77 924.05 323.77 924.05 300.77 923.05 300.77"></polygon>
            <polygon id="Fill-370" fill="#1C4B77" points="1126.59 323.77 1127.59 323.77 1127.59 300.77 1126.59 300.77"></polygon>
            <polygon id="Fill-371" fill="#1C4B77" points="1330.12 323.77 1331.12 323.77 1331.12 300.77 1330.12 300.77"></polygon>
            <polygon id="Fill-372" fill="#1C4B77" points="0 181.98 10 181.98 10 180.98 0 180.98"></polygon>
            <polygon id="Path" fill="#0E1623" points="1407.66 296.77 1331.12 296.77 1331.12 181.98 1439 181.98 1439 265.43"></polygon>
            <polygon id="Path" fill="#0E1623" points="1127.59 296.77 1330.12 296.77 1330.12 181.98 1127.59 181.98"></polygon>
            <polygon id="Path" fill="#0E1623" points="924.05 296.77 1126.59 296.77 1126.59 181.98 924.05 181.98"></polygon>
            <polygon id="Path" fill="#0E1623" points="720.52 296.77 923.05 296.77 923.05 181.98 720.52 181.98"></polygon>
            <polygon id="Path" fill="#0E1623" points="516.98 296.77 719.52 296.77 719.52 181.98 516.98 181.98"></polygon>
            <polygon id="Path" fill="#0E1623" points="515.98 296.77 335.1 296.77 313.45 275.12 313.45 181.98 515.98 181.98"></polygon>
            <polygon id="Path" fill="#0E1623" points="312.45 274.12 287.17 248.84 109.92 248.84 109.92 181.98 312.45 181.98"></polygon>
            <polygon id="Path" fill="#0E1623" points="108.92 248.84 63.89 248.84 14 214.41 14 181.98 108.92 181.98"></polygon>
            <polygon id="Path" fill="#0E1623" points="1439 180.98 1331.12 180.98 1331.12 130.07 1413.62 130.07 1439 155.44"></polygon>
            <polygon id="Path" fill="#0E1623" points="1127.59 180.98 1330.12 180.98 1330.12 130.07 1127.59 130.07"></polygon>
            <polygon id="Path" fill="#0E1623" points="924.05 180.98 1126.59 180.98 1126.59 130.07 924.05 130.07"></polygon>
            <polygon id="Path" fill="#0E1623" points="720.52 180.98 923.05 180.98 923.05 130.07 720.52 130.07"></polygon>
            <polygon id="Path" fill="#0E1623" points="719.52 180.98 516.98 180.98 516.98 27 518.989 27 622.06 130.07 719.52 130.07"></polygon>
            <polygon id="Path" fill="#0E1623" points="313.45 180.98 515.98 180.98 515.98 27 313.45 27"></polygon>
            <polygon id="Path" fill="#0E1623" points="109.92 180.98 312.45 180.98 312.45 27 109.92 27"></polygon>
            <polygon id="Path" fill="#0E1623" points="108.92 180.98 14 180.98 14 82.06 69.06 27 108.92 27"></polygon>
            <polygon id="Path" fill="#1C4B77" points="108.92 248.84 109.92 248.84 109.92 181.98 108.92 181.98"></polygon>
            <polygon id="Path" fill="#1C4B77" points="108.92 180.98 109.92 180.98 109.92 27 108.92 27"></polygon>
            <polygon id="Path" fill="#1C4B77" points="313.45 275.12 312.45 274.12 312.45 181.98 313.45 181.98"></polygon>
            <polygon id="Path" fill="#1C4B77" points="312.45 180.98 313.45 180.98 313.45 27 312.45 27"></polygon>
            <polygon id="Path" fill="#1C4B77" points="515.98 296.77 516.98 296.77 516.98 181.98 515.98 181.98"></polygon>
            <polygon id="Path" fill="#1C4B77" points="515.98 180.98 516.98 180.98 516.98 27 515.98 27"></polygon>
            <polygon id="Path" fill="#1C4B77" points="719.52 296.77 720.52 296.77 720.52 181.98 719.52 181.98"></polygon>
            <polygon id="Path" fill="#1C4B77" points="719.52 180.98 720.52 180.98 720.52 130.07 719.52 130.07"></polygon>
            <polygon id="Path" fill="#1C4B77" points="923.05 296.77 924.05 296.77 924.05 181.98 923.05 181.98"></polygon>
            <polygon id="Path" fill="#1C4B77" points="923.05 180.98 924.05 180.98 924.05 130.07 923.05 130.07"></polygon>
            <polygon id="Path" fill="#1C4B77" points="1126.59 296.77 1127.59 296.77 1127.59 181.98 1126.59 181.98"></polygon>
            <polygon id="Path" fill="#1C4B77" points="1126.59 180.98 1127.59 180.98 1127.59 130.07 1126.59 130.07"></polygon>
            <polygon id="Path" fill="#1C4B77" points="1330.12 296.77 1331.12 296.77 1331.12 181.98 1330.12 181.98"></polygon>
            <polygon id="Path" fill="#1C4B77" points="1330.12 180.98 1331.12 180.98 1331.12 130.07 1330.12 130.07"></polygon>
            <polygon id="Fill-381" fill="#1C4B77" points="14 181.98 1439 181.98 1439 180.98 14 180.98"></polygon>
            <polyline id="Fill-382" fill="#478EBF" points="1409.319 300.77 333.45 300.77 313.45 280.78 285.51 252.84 62.65 252.84 10.86 217.1 12 215.46 14 215.46 12 215.46 10.86 217.1 10 216.51 10 86.06 14 82.06 14 214.41 63.89 248.84 287.17 248.84 335.1 296.77 1407.66 296.77 1439 265.43 1439 271.09 1409.319 300.77"></polyline>
            <polyline id="Fill-383" fill="#478EBF" points="600.42 71.43 699 71.43 732.06 104.5 634 104.5 602.25 72.75"></polyline>
            <polyline id="Fill-384" fill="#478EBF" points="739.42 71.43 838 71.43 871.06 104.5 773 104.5 741.25 72.75"></polyline>
            <polyline id="Fill-385" fill="#478EBF" points="878.42 71.43 977 71.43 1010.06 104.5 912 104.5 880.25 72.75"></polyline>
            <polyline id="Fill-386" fill="#478EBF" points="1017.42 71.43 1116 71.43 1149.06 104.5 1051 104.5 1019.25 72.75"></polyline>
            <polyline id="Fill-387" fill="#478EBF" points="1156.42 71.43 1255 71.43 1288.06 104.5 1190 104.5 1158.25 72.75"></polyline>
            <polyline id="Fill-388" fill="#0E1623" points="296 317 261 317 231.5 287.5 266 287 296 317"></polyline>
            <polyline id="Fill-389" fill="#0E1623" points="243 317 208 317 178.5 287.5 213 287 243 317"></polyline>
            <polyline id="Fill-390" fill="#0E1623" points="190 317 155 317 125.5 287.5 160 287 190 317"></polyline>
            <polyline id="Path" fill="#0E1623" points="137 317 109.92 317 109.92 289.92 137 317"></polyline>
            <polyline id="Path" fill="#0E1623" points="108.92 317 102 317 72.5 287.5 107 287 108.92 288.92 108.92 317"></polyline>
            <polyline id="Fill-392" fill="#1C4B77" points="109.92 317 108.92 317 108.92 288.92 109.92 289.92 109.92 317"></polyline>
            <polyline id="Fill-393" fill="#478EBF" points="310.85 273.86 761 273.86 774.57 287.43 1405 287.43 1432.21 260.21 1447.05 260.21 1408.13 299.13 334 299.13 310.85 273.86"></polyline>
        </g>
    </g>
</svg>