<?xml version="1.0" encoding="UTF-8"?>
<svg width="50px" height="20px" viewBox="0 0 281 326" version="1.1" xmlns="http://www.w3.org/2000/svg" xmlns:xlink="http://www.w3.org/1999/xlink">
    <title>action</title>
    <g id="Page-1" stroke="none" stroke-width="1" fill="none" fill-rule="evenodd">
        <g id="movie-icons-I" transform="translate(-103.000000, -588.000000)">
            <g id="action" transform="translate(103.876000, 588.448500)">
                <polygon id="Fill-3" fill="#0A0B09" points="11.124 325.5515 280.124 325.5515 280.124 157.5515 11.124 157.5515"></polygon>
                <polyline id="Fill-4" fill="#0A0B09" points="136.661 118.5515 116.749 157.5515 149.2 157.5515 169.112 118.5515 136.661 118.5515"></polyline>
                <polyline id="Fill-5" fill="#FFFFFE" points="104.21 118.5515 84.298 157.5515 116.749 157.5515 136.661 118.5515 104.21 118.5515"></polyline>
                <polyline id="Fill-6" fill="#0A0B09" points="279.187 157.7365 279.003 158.0965 279.187 158.0965 279.187 157.7365"></polyline>
                <polyline id="Fill-7" fill="#0A0B09" points="11.124 118.5515 11.124 157.5515 19.397 157.5515 39.309 118.5515 11.124 118.5515"></polyline>
                <polyline id="Fill-8" fill="#FFFFFE" points="39.309 118.5515 19.397 157.5515 51.848 157.5515 71.76 118.5515 39.309 118.5515"></polyline>
                <polyline id="Fill-9" fill="#0A0B09" points="71.76 118.5515 51.848 157.5515 84.298 157.5515 104.21 118.5515 71.76 118.5515"></polyline>
                <polyline id="Fill-10" fill="#0A0B09" points="280.124 118.5515 266.464 118.5515 246.552 157.5515 279.003 157.5515 280.124 157.7365 280.124 118.5515"></polyline>
                <polyline id="Fill-11" fill="#FFFFFE" points="234.013 118.5515 214.102 157.5515 246.552 157.5515 266.464 118.5515 234.013 118.5515"></polyline>
                <polyline id="Fill-12" fill="#FFFFFE" points="169.112 118.5515 149.2 157.5515 181.65 157.5515 201.562 118.5515 169.112 118.5515"></polyline>
                <polyline id="Fill-13" fill="#0A0B09" points="201.562 118.5515 181.65 157.5515 214.102 157.5515 234.013 118.5515 201.562 118.5515"></polyline>
                <polyline id="Fill-14" fill="#0A0B09" points="131.605 77.4565 101.627 45.6115 132.791 36.5655 162.77 68.4105 131.605 77.4565"></polyline>
                <polyline id="Fill-15" fill="#FFFFFE" points="100.441 86.5035 70.462 54.6565 101.627 45.6115 131.605 77.4565 100.441 86.5035"></polyline>
                <polyline id="Fill-16" fill="#0A0B09" points="257.726 0.6735 257.449 0.3785 257.624 0.3265 257.726 0.6735"></polyline>
                <polyline id="Fill-17" fill="#0A0B09" points="10.855 112.5085 0 75.1125 8.134 72.7495 38.113 104.5965 10.855 112.5085"></polyline>
                <polyline id="Fill-18" fill="#FFFFFE" points="38.113 104.5965 8.134 72.7495 39.298 63.7045 69.277 95.5495 38.113 104.5965"></polyline>
                <polyline id="Fill-19" fill="#0A0B09" points="69.277 95.5495 39.298 63.7045 70.462 54.6565 100.441 86.5035 69.277 95.5495"></polyline>
                <polyline id="Fill-20" fill="#0A0B09" points="268.481 37.7245 256.262 41.2715 226.285 9.4245 257.449 0.3785 257.726 0.6735 268.481 37.7245"></polyline>
                <polyline id="Fill-21" fill="#FFFFFE" points="225.098 50.3175 195.119 18.4725 226.285 9.4245 256.262 41.2715 225.098 50.3175"></polyline>
                <polyline id="Fill-22" fill="#FFFFFE" points="162.77 68.4105 132.791 36.5655 163.955 27.5175 193.934 59.3645 162.77 68.4105"></polyline>
                <polyline id="Fill-23" fill="#0A0B09" points="193.934 59.3645 163.955 27.5175 195.119 18.4725 225.098 50.3175 193.934 59.3645"></polyline>
                <polygon id="Fill-24" fill="#FFFFFE" points="29.124 293.5515 260.124 293.5515 260.124 291.5515 29.124 291.5515"></polygon>
                <polygon id="Fill-25" fill="#FFFFFE" points="29.124 258.5515 260.124 258.5515 260.124 256.5515 29.124 256.5515"></polygon>
                <polygon id="Fill-26" fill="#FFFFFE" points="29.124 226.5515 260.124 226.5515 260.124 224.5515 29.124 224.5515"></polygon>
                <polygon id="Fill-27" fill="#FFFFFE" points="102.124 213.5515 104.124 213.5515 104.124 170.5515 102.124 170.5515"></polygon>
                <polygon id="Fill-28" fill="#FFFFFE" points="187.124 213.5515 189.124 213.5515 189.124 170.5515 187.124 170.5515"></polygon>
            </g>
        </g>
    </g>
</svg>