<?xml version="1.0" encoding="UTF-8"?>
<svg width="336px" height="186px" viewBox="0 0 336 186" version="1.1" xmlns="http://www.w3.org/2000/svg" xmlns:xlink="http://www.w3.org/1999/xlink">
    <title>film</title>
    <g id="Page-1" stroke="none" stroke-width="1" fill="none" fill-rule="evenodd">
        <g id="movie-icons-I" transform="translate(-1016.000000, -656.000000)">
            <g id="film" transform="translate(1184.000000, 749.000000) rotate(90.000000) translate(-1184.000000, -749.000000) translate(1091.000000, 581.000000)">
                <path d="M179,22.188 C179,24.294 177.29,26 175.19,26 L165.81,26 C163.71,26 162,24.294 162,22.188 L162,12.812 C162,10.706 163.71,9 165.81,9 L175.19,9 C177.29,9 179,10.706 179,12.812 L179,22.188 Z M179,48.188 C179,50.294 177.29,52 175.19,52 L165.81,52 C163.71,52 162,50.294 162,48.188 L162,38.812 C162,36.706 163.71,35 165.81,35 L175.19,35 C177.29,35 179,36.706 179,38.812 L179,48.188 Z M179,76.188 C179,78.293 177.29,80 175.19,80 L165.81,80 C163.71,80 162,78.293 162,76.188 L162,66.813 C162,64.707 163.71,63 165.81,63 L175.19,63 C177.29,63 179,64.707 179,66.813 L179,76.188 Z M179,102.188 C179,104.293 177.29,106 175.19,106 L165.81,106 C163.71,106 162,104.293 162,102.188 L162,92.813 C162,90.707 163.71,89 165.81,89 L175.19,89 C177.29,89 179,90.707 179,92.813 L179,102.188 Z M179,128.188 C179,130.293 177.29,132 175.19,132 L165.81,132 C163.71,132 162,130.293 162,128.188 L162,118.813 C162,116.707 163.71,115 165.81,115 L175.19,115 C177.29,115 179,116.707 179,118.813 L179,128.188 Z M180,154.302 C180,156.406 177.85,158 175.75,158 L166.07,158 C163.96,158 162,156.406 162,154.302 L162,144.617 C162,142.512 163.96,141 166.07,141 L175.75,141 C177.85,141 180,142.512 180,144.617 L180,154.302 Z M180,182.426 C180,184.53 177.85,186 175.75,186 L166.07,186 C163.96,186 162,184.53 162,182.426 L162,172.741 C162,170.636 163.96,169 166.07,169 L175.75,169 C177.85,169 180,170.636 180,172.741 L180,182.426 Z M180,206.223 C180,208.327 177.85,210 175.75,210 L166.07,210 C163.96,210 162,208.327 162,206.223 L162,196.538 C162,194.433 163.96,193 166.07,193 L175.75,193 C177.85,193 180,194.433 180,196.538 L180,206.223 Z M180,234.347 C180,236.451 177.85,238 175.75,238 L166.07,238 C163.96,238 162,236.451 162,234.347 L162,222.499 C162,220.395 163.96,219 166.07,219 L175.75,219 C177.85,219 180,220.395 180,222.499 L180,234.347 Z M180,260.307 C180,262.411 177.85,264 175.75,264 L166.07,264 C163.96,264 162,262.411 162,260.307 L162,250.623 C162,248.519 163.96,247 166.07,247 L175.75,247 C177.85,247 180,248.519 180,250.623 L180,260.307 Z M180,286.268 C180,288.372 177.85,290 175.75,290 L166.07,290 C163.96,290 162,288.372 162,286.268 L162,276.583 C162,274.479 163.96,273 166.07,273 L175.75,273 C177.85,273 180,274.479 180,276.583 L180,286.268 Z M180,312.229 C180,314.332 177.85,316 175.75,316 L166.07,316 C163.96,316 162,314.332 162,312.229 L162,302.544 C162,300.439 163.96,299 166.07,299 L175.75,299 C177.85,299 180,300.439 180,302.544 L180,312.229 Z M153,101.801 C153,106.881 148.88,111 143.8,111 L41.2,111 C36.12,111 32,106.881 32,101.801 L32,18.199 C32,13.119 36.12,9 41.2,9 L143.8,9 C148.88,9 153,13.119 153,18.199 L153,101.801 Z M154,321.984 C154,327.065 149.48,331 144.4,331 L41.65,331 C36.57,331 32,327.065 32,321.984 L32,238.703 C32,233.622 36.57,230 41.65,230 L144.4,230 C149.48,230 154,233.622 154,238.703 L154,321.984 Z M23,22.188 C23,24.294 21.29,26 19.19,26 L9.81,26 C7.71,26 6,24.294 6,22.188 L6,12.812 C6,10.706 7.71,9 9.81,9 L19.19,9 C21.29,9 23,10.706 23,12.812 L23,22.188 Z M23,48.188 C23,50.294 21.29,52 19.19,52 L9.81,52 C7.71,52 6,50.294 6,48.188 L6,38.812 C6,36.706 7.71,35 9.81,35 L19.19,35 C21.29,35 23,36.706 23,38.812 L23,48.188 Z M23,76.188 C23,78.293 21.29,80 19.19,80 L9.81,80 C7.71,80 6,78.293 6,76.188 L6,66.813 C6,64.707 7.71,63 9.81,63 L19.19,63 C21.29,63 23,64.707 23,66.813 L23,76.188 Z M23,102.188 C23,104.293 21.29,106 19.19,106 L9.81,106 C7.71,106 6,104.293 6,102.188 L6,92.813 C6,90.707 7.71,89 9.81,89 L19.19,89 C21.29,89 23,90.707 23,92.813 L23,102.188 Z M23,128.188 C23,130.293 21.29,132 19.19,132 L9.81,132 C7.71,132 6,130.293 6,128.188 L6,118.813 C6,116.707 7.71,115 9.81,115 L19.19,115 C21.29,115 23,116.707 23,118.813 L23,128.188 Z M24,154.302 C24,156.406 22.09,158 19.98,158 L10.3,158 C8.2,158 6,156.406 6,154.302 L6,144.617 C6,142.512 8.2,141 10.3,141 L19.98,141 C22.09,141 24,142.512 24,144.617 L24,154.302 Z M24,182.426 C24,184.53 22.09,186 19.98,186 L10.3,186 C8.2,186 6,184.53 6,182.426 L6,172.741 C6,170.636 8.2,169 10.3,169 L19.98,169 C22.09,169 24,170.636 24,172.741 L24,182.426 Z M24,206.223 C24,208.327 22.09,210 19.98,210 L10.3,210 C8.2,210 6,208.327 6,206.223 L6,196.538 C6,194.433 8.2,193 10.3,193 L19.98,193 C22.09,193 24,194.433 24,196.538 L24,206.223 Z M24,234.347 C24,236.451 22.09,238 19.98,238 L10.3,238 C8.2,238 6,236.451 6,234.347 L6,222.499 C6,220.395 8.2,219 10.3,219 L19.98,219 C22.09,219 24,220.395 24,222.499 L24,234.347 Z M24,260.307 C24,262.411 22.09,264 19.98,264 L10.3,264 C8.2,264 6,262.411 6,260.307 L6,250.623 C6,248.519 8.2,247 10.3,247 L19.98,247 C22.09,247 24,248.519 24,250.623 L24,260.307 Z M24,286.268 C24,288.372 22.09,290 19.98,290 L10.3,290 C8.2,290 6,288.372 6,286.268 L6,276.583 C6,274.479 8.2,273 10.3,273 L19.98,273 C22.09,273 24,274.479 24,276.583 L24,286.268 Z M24,312.229 C24,314.332 22.09,316 19.98,316 L10.3,316 C8.2,316 6,314.332 6,312.229 L6,302.544 C6,300.439 8.2,299 10.3,299 L19.98,299 C22.09,299 24,300.439 24,302.544 L24,312.229 Z M0,0 L0,336 L6,336 L6,329.233 C6,327.135 6.84,325 8.94,325 L17.83,325 C19.93,325 22,327.135 22,329.233 L22,336 L162,336 L162,329.233 C162,327.135 161.86,325 163.96,325 L172.86,325 C174.95,325 177,327.135 177,329.233 L177,336 L186,336 L186,0 L0,0 L0,0 Z" id="Fill-163" fill="#312C23"></path>
                <path d="M153,239.197 C153,234.118 148.88,230 143.8,230 L41.2,230 C36.12,230 32,234.118 32,239.197 L32,322.803 C32,327.882 36.12,332 41.2,332 L143.8,332 C148.88,332 153,327.882 153,322.803 L153,239.197" id="Fill-164" fill="#A78562"></path>
                <path d="M154,128.367 C154,123.288 149.48,119 144.4,119 L41.65,119 C36.57,119 32,123.288 32,128.367 L32,211.656 C32,216.733 36.57,221 41.65,221 L144.4,221 C149.48,221 154,216.733 154,211.656 L154,128.367" id="Fill-165" fill="#A78562"></path>
                <path d="M153,18.197 C153,13.118 148.88,9 143.8,9 L41.2,9 C36.12,9 32,13.118 32,18.197 L32,101.803 C32,106.882 36.12,111 41.2,111 L143.8,111 C148.88,111 153,106.882 153,101.803 L153,18.197" id="Fill-166" fill="#A78562"></path>
            </g>
        </g>
    </g>
</svg>