<?xml version="1.0" encoding="UTF-8"?>
<svg width="100px" height="200px" viewBox="0 0 266 200" version="1.1" xmlns="http://www.w3.org/2000/svg" xmlns:xlink="http://www.w3.org/1999/xlink">
    <title>vintage camera</title>
    <g id="Page-1" stroke="none" stroke-width="1" fill="none" fill-rule="evenodd">
        <g id="movie-icons-I" transform="translate(-609.000000, -101.000000)">
            <g id="vintage-camera" transform="translate(742.000000, 248.308500) scale(-1, 1) translate(-742.000000, -248.308500) translate(609.000000, 101.617000)">
                <polyline id="Fill-167" fill="#0A0B09" points="10 196.507 39 174.873 39 138.095 10 118.625 10 196.507"></polyline>
                <path d="M65.825,155.883 C65.825,166.039 64.384,174.383 62.607,174.383 L38.755,174.383 C36.979,174.383 35.538,166.039 35.538,155.883 C35.538,145.727 36.979,137.383 38.755,137.383 L62.607,137.383 C64.384,137.383 65.825,145.727 65.825,155.883" id="Fill-168" fill="#454543"></path>
                <path d="M251,192.013 C251,201.364 241.473,209.383 231.307,209.383 L62.597,209.383 C52.431,209.383 45,201.364 45,192.013 L45,122.037 C45,112.685 52.431,105.383 62.597,105.383 L231.307,105.383 C241.473,105.383 251,112.685 251,122.037 L251,192.013" id="Fill-169" fill="#0A0B09"></path>
                <path d="M11,203.056 C11,205.446 9.063,207.383 6.673,207.383 L4.327,207.383 C1.937,207.383 0,205.446 0,203.056 L0,109.71 C0,107.32 1.937,105.383 4.327,105.383 L6.673,105.383 C9.063,105.383 11,107.32 11,109.71 L11,203.056" id="Fill-170" fill="#454543"></path>
                <polyline id="Fill-171" fill="#454543" points="266 142.422 251 138.095 251 122.951 266 118.625 266 142.422"></polyline>
                <polygon id="Fill-172" fill="#454543" points="134 293.383 147 293.383 147 209.383 134 209.383"></polygon>
                <polyline id="Fill-173" fill="#454543" points="184.811 293.383 171.831 293.383 152.36 209.383 165.341 209.383 184.811 293.383"></polyline>
                <polyline id="Fill-174" fill="#454543" points="93.949 293.383 106.93 293.383 126.399 209.383 113.42 209.383 93.949 293.383"></polyline>
                <path d="M96.112,15.144 C72.454,15.144 53.206,34.391 53.206,58.05 C53.206,81.709 72.454,100.958 96.112,100.958 C119.771,100.958 139.019,81.709 139.019,58.05 C139.019,34.391 119.771,15.144 96.112,15.144 Z M96.112,116.101 C64.104,116.101 38.063,90.059 38.063,58.05 C38.063,26.041 64.104,0 96.112,0 C128.121,0 154.162,26.041 154.162,58.05 C154.162,90.059 128.121,116.101 96.112,116.101 L96.112,116.101 Z" id="Fill-175" fill="#454543"></path>
                <path d="M127.843,58.05 C127.843,75.575 113.635,89.78 96.112,89.78 C78.59,89.78 64.384,75.575 64.384,58.05 C64.384,40.527 78.59,26.321 96.112,26.321 C113.635,26.321 127.843,40.527 127.843,58.05" id="Fill-176" fill="#0A0B09"></path>
                <path d="M114.862,58.05 C114.862,68.405 106.467,76.8 96.112,76.8 C85.758,76.8 77.364,68.405 77.364,58.05 C77.364,47.696 85.758,39.301 96.112,39.301 C106.467,39.301 114.862,47.696 114.862,58.05" id="Fill-177" fill="#454543"></path>
                <path d="M201.036,43.268 C185.131,43.268 172.192,56.207 172.192,72.112 C172.192,88.017 185.131,100.958 201.036,100.958 C216.942,100.958 229.883,88.017 229.883,72.112 C229.883,56.207 216.942,43.268 201.036,43.268 Z M201.036,116.101 C176.781,116.101 157.048,96.368 157.048,72.112 C157.048,47.858 176.781,28.124 201.036,28.124 C225.293,28.124 245.026,47.858 245.026,72.112 C245.026,96.368 225.293,116.101 201.036,116.101 L201.036,116.101 Z" id="Fill-178" fill="#454543"></path>
                <path d="M217.984,72.112 C217.984,81.471 210.396,89.059 201.036,89.059 C191.68,89.059 184.091,81.471 184.091,72.112 C184.091,62.754 191.68,55.166 201.036,55.166 C210.396,55.166 217.984,62.754 217.984,72.112" id="Fill-179" fill="#0A0B09"></path>
                <path d="M211.834,72.112 C211.834,78.075 207,82.91 201.036,82.91 C195.074,82.91 190.24,78.075 190.24,72.112 C190.24,66.15 195.074,61.315 201.036,61.315 C207,61.315 211.834,66.15 211.834,72.112" id="Fill-180" fill="#454543"></path>
                <polygon id="Fill-181" fill="#454543" points="90 109.383 101 109.383 101 5.383 90 5.383"></polygon>
                <polygon id="Fill-182" fill="#454543" points="43 64.383 147 64.383 147 53.383 43 53.383"></polygon>
                <polyline id="Fill-183" fill="#454543" points="133.961 91.768 126.02 99.112 55.526 22.863 63.467 15.52 133.961 91.768"></polyline>
                <polyline id="Fill-184" fill="#454543" points="129.136 19.626 136.479 27.569 60.23 98.062 52.887 90.119 129.136 19.626"></polyline>
                <polygon id="Fill-185" fill="#454543" points="199 107.383 205 107.383 205 34.383 199 34.383"></polygon>
                <polygon id="Fill-186" fill="#454543" points="164 75.383 238 75.383 238 68.383 164 68.383"></polygon>
                <polyline id="Fill-187" fill="#454543" points="228.852 95.382 223.116 100.686 172.205 45.618 177.94 40.314 228.852 95.382"></polyline>
                <polyline id="Fill-188" fill="#454543" points="225.366 43.28 230.671 49.016 175.604 99.927 170.299 94.192 225.366 43.28"></polyline>
            </g>
        </g>
    </g>
</svg>