<?xml version="1.0" encoding="UTF-8"?>
<svg width="100px" height="60px" viewBox="0 0 110 163" version="1.1" xmlns="http://www.w3.org/2000/svg" xmlns:xlink="http://www.w3.org/1999/xlink">
    <title>popcorn</title>
    <g id="Page-1" stroke="none" stroke-width="1" fill="none" fill-rule="evenodd">
        <g id="movie-icons-II" transform="translate(-789.000000, -335.000000)">
            <g id="popcorn" transform="translate(789.539000, 335.105000)">
                <path d="M86.417,23.635 C85.29,23.635 84.185,23.726 83.106,23.897 L83.113,23.635 C83.113,10.582 72.531,0 59.479,0 C50.2,0 42.175,5.349 38.307,13.129 C37.76,13.077 37.207,13.048 36.647,13.048 C28.113,13.048 21.033,19.254 19.663,27.399 L19.42,27.393 C9.906,27.393 2.193,35.106 2.193,44.619 C2.193,54.134 9.906,61.846 19.42,61.846 C23.943,61.846 28.058,60.1 31.131,57.249 C34.475,64.403 41.731,69.362 50.149,69.362 C58.73,69.362 66.104,64.208 69.356,56.829 C71.545,59.884 79.571,58.362 87.872,56.841 C94.003,55.717 100.284,54.594 104.476,55.314 C106.335,52.182 107.401,48.526 107.401,44.619 C107.401,33.03 98.007,23.635 86.417,23.635" id="Fill-142" fill="#EED668"></path>
                <polyline id="Fill-143" fill="#D7463C" points="89.318 156.284 19.894 156.284 7.714 56.815 101.498 56.815 89.318 156.284"></polyline>
                <polygon id="Fill-144" fill="#396772" points="23.954 161.969 85.259 161.969 85.259 156.284 23.954 156.284"></polygon>
                <polygon id="Fill-145" fill="#396772" points="0 56.815 109.212 56.815 109.212 52.147 0 52.147"></polygon>
                <polygon id="Fill-146" fill="#F0F4F3" points="49.734 156.284 59.479 156.284 59.479 56.815 49.734 56.815"></polygon>
                <polyline id="Fill-147" fill="#F0F4F3" points="38.908 156.284 29.164 156.284 19.42 56.815 29.164 56.815 38.908 156.284"></polyline>
                <polyline id="Fill-148" fill="#F0F4F3" points="70.305 156.284 80.049 156.284 89.792 56.815 80.049 56.815 70.305 156.284"></polyline>
                <polyline id="Fill-149" fill="#BD4037" points="100.71 63.255 89.161 63.255 89.792 56.815 101.498 56.815 100.71 63.255"></polyline>
                <path d="M79.418,63.255 L59.479,63.255 L59.479,56.815 L80.049,56.815 L79.418,63.255 M49.734,63.255 L29.795,63.255 L29.164,56.815 L49.734,56.815 L49.734,63.255 M20.051,63.255 L8.503,63.255 L7.714,56.815 L19.42,56.815 L20.051,63.255" id="Fill-150" fill="#BD4037"></path>
                <polygon id="Fill-151" fill="#D1D6D3" points="49.734 63.255 59.479 63.255 59.479 56.815 49.734 56.815"></polygon>
                <polyline id="Fill-152" fill="#D1D6D3" points="29.795 63.255 20.051 63.255 19.42 56.815 29.164 56.815 29.795 63.255"></polyline>
                <polyline id="Fill-153" fill="#D1D6D3" points="89.161 63.255 79.418 63.255 80.049 56.815 89.792 56.815 89.161 63.255"></polyline>
                <path d="M89.318,156.284 L80.049,156.284 L80.665,149.991 L90.089,149.991 L89.318,156.284 M70.305,156.284 L59.479,156.284 L59.479,149.991 L70.921,149.991 L70.305,156.284 M49.734,156.284 L38.908,156.284 L38.292,149.991 L49.734,149.991 L49.734,156.284 M29.164,156.284 L19.894,156.284 L19.123,149.991 L28.548,149.991 L29.164,156.284" id="Fill-154" fill="#BD4037"></path>
                <polyline id="Fill-155" fill="#325B65" points="85.259 156.284 23.954 156.284 85.259 156.284"></polyline>
                <polygon id="Fill-156" fill="#D1D6D3" points="49.734 156.284 59.479 156.284 59.479 149.991 49.734 149.991"></polygon>
                <polyline id="Fill-157" fill="#D1D6D3" points="38.908 156.284 29.164 156.284 28.548 149.991 38.292 149.991 38.908 156.284"></polyline>
                <polyline id="Fill-158" fill="#D1D6D3" points="80.049 156.284 70.305 156.284 70.921 149.991 80.665 149.991 80.049 156.284"></polyline>
                <path d="M13.842,43.977 C13.169,43.977 12.623,43.432 12.623,42.759 C12.623,38.673 15.947,35.35 20.033,35.35 C20.706,35.35 21.251,35.895 21.251,36.568 C21.251,37.24 20.706,37.786 20.033,37.786 C17.29,37.786 15.06,40.017 15.06,42.759 C15.06,43.432 14.515,43.977 13.842,43.977" id="Fill-159" fill="#E0C021"></path>
                <path d="M84.67,49.297 C83.997,49.297 83.452,48.752 83.452,48.079 C83.452,43.993 86.776,40.67 90.861,40.67 C91.534,40.67 92.08,41.215 92.08,41.887 C92.08,42.56 91.534,43.106 90.861,43.106 C88.119,43.106 85.889,45.337 85.889,48.079 C85.889,48.752 85.343,49.297 84.67,49.297" id="Fill-160" fill="#E0C021"></path>
                <path d="M70.307,35.899 L70.108,35.883 C69.444,35.774 68.994,35.148 69.103,34.485 C69.422,32.531 70.482,30.819 72.09,29.664 C73.697,28.509 75.657,28.048 77.61,28.368 C78.274,28.476 78.725,29.103 78.616,29.766 C78.507,30.43 77.879,30.879 77.218,30.772 C75.907,30.557 74.591,30.866 73.512,31.642 C72.433,32.417 71.721,33.566 71.507,34.877 C71.409,35.475 70.893,35.899 70.307,35.899" id="Fill-161" fill="#E0C021"></path>
                <path d="M50.735,25.298 C50.215,25.298 49.733,24.963 49.571,24.44 C49.18,23.171 48.316,22.13 47.142,21.51 C45.967,20.89 44.621,20.764 43.352,21.156 C42.709,21.356 42.027,20.995 41.828,20.353 C41.63,19.71 41.989,19.028 42.632,18.829 C44.524,18.245 46.528,18.432 48.279,19.356 C50.029,20.279 51.315,21.83 51.899,23.72 C52.098,24.363 51.737,25.045 51.095,25.244 C50.976,25.281 50.854,25.298 50.735,25.298" id="Fill-162" fill="#E0C021"></path>
                <path d="M36.184,47.858 C36.026,47.858 35.867,47.827 35.713,47.763 C35.093,47.503 34.801,46.789 35.061,46.169 C35.826,44.343 37.257,42.926 39.089,42.177 C40.922,41.428 42.936,41.438 44.76,42.204 C45.38,42.464 45.672,43.178 45.412,43.798 C45.151,44.419 44.438,44.71 43.817,44.449 C42.592,43.936 41.24,43.929 40.011,44.432 C38.781,44.935 37.821,45.886 37.307,47.111 C37.111,47.577 36.659,47.858 36.184,47.858" id="Fill-163" fill="#E0C021"></path>
                <path d="M63.421,45.737 C63.147,45.737 62.871,45.645 62.644,45.456 C62.126,45.026 62.056,44.258 62.485,43.74 C63.751,42.219 65.532,41.281 67.503,41.099 C69.472,40.917 71.398,41.515 72.92,42.78 C73.437,43.21 73.508,43.978 73.077,44.495 C72.648,45.012 71.88,45.083 71.362,44.653 C70.341,43.804 69.052,43.403 67.727,43.525 C66.404,43.647 65.208,44.277 64.358,45.298 C64.118,45.588 63.771,45.737 63.421,45.737" id="Fill-164" fill="#E0C021"></path>
                <path d="M59.062,11.044 C58.787,11.044 58.511,10.951 58.283,10.762 C57.767,10.332 57.695,9.564 58.126,9.047 C59.391,7.525 61.173,6.587 63.144,6.405 C65.112,6.224 67.038,6.821 68.56,8.086 C69.077,8.516 69.148,9.284 68.718,9.801 C68.288,10.319 67.521,10.39 67.003,9.959 C65.982,9.11 64.692,8.709 63.367,8.831 C62.045,8.953 60.848,9.583 59.999,10.604 C59.758,10.894 59.411,11.044 59.062,11.044" id="Fill-165" fill="#E0C021"></path>
            </g>
        </g>
    </g>
</svg>